@startuml test
[*] -> NotShooting

state NotShooting {
  [*] -> Idle
  Idle --> Configuring : EvConfig
  Configuring --> Idle : EvConfig
}

state Configuring {
  [*] -> NewValueSelection
  NewValueSelection -> NewValuePreview : EvNewValue
  NewValuePreview -> NewValueSelection : EvNewValdueRejected
  NewValuePreview -> NewValueSelection : EvNewValueSaved

  state NewValuePreview {
     State1 -> State2 : hoge
  }

}
@enduml
